<svg width="71" height="68" viewBox="0 0 71 68" fill="none" xmlns="http://www.w3.org/2000/svg">
<path d="M23.6694 0.000832031H44.679L22.869 64.6211C22.6449 65.2851 22.2182 65.8622 21.6489 66.2709C21.0796 66.6797 20.3964 66.8996 19.6956 66.8998H3.34481C2.81387 66.8997 2.29058 66.7733 1.81819 66.5309C1.34581 66.2885 0.937908 65.9372 0.628223 65.5059C0.318538 65.0747 0.115967 64.5759 0.037261 64.0508C-0.0414451 63.5257 0.00597556 62.9895 0.175601 62.4864L20.4952 2.27949C20.7193 1.6152 21.1461 1.03794 21.7155 0.629008C22.285 0.220076 22.9683 7.87305e-05 23.6694 0V0.000832031Z" fill="url(#paint0_linear_88_12)"/>
<path d="M54.1993 43.344H20.8831C20.5734 43.3437 20.2708 43.4367 20.0147 43.6109C19.7586 43.785 19.5609 44.0323 19.4473 44.3204C19.3337 44.6085 19.3095 44.9241 19.3778 45.2262C19.4461 45.5283 19.6038 45.8028 19.8304 46.014L41.2385 65.9958C41.8619 66.577 42.6826 66.9001 43.5349 66.8999H62.3998L54.1993 43.344V43.344Z" fill="#0078D4"/>
<path d="M23.6694 0.001001C22.9607 -0.00171617 22.2697 0.222254 21.6973 0.640193C21.1249 1.05813 20.7012 1.64814 20.488 2.32403L0.200558 62.4316C0.0194105 62.9366 -0.0374507 63.4778 0.0347839 64.0094C0.107019 64.541 0.306224 65.0474 0.615549 65.4857C0.924875 65.924 1.33522 66.2814 1.81187 66.5276C2.28853 66.7738 2.81747 66.9016 3.35396 66.9002H20.1263C20.751 66.7886 21.3349 66.5132 21.8183 66.1021C22.3017 65.691 22.6674 65.1589 22.8778 64.5602L26.9237 52.637L41.3747 66.1159C41.9804 66.6168 42.7401 66.8938 43.5261 66.9002H62.3206L54.0776 43.344L30.0477 43.3496L44.755 0.001001H23.6694Z" fill="url(#paint1_linear_88_12)"/>
<path d="M50.5037 2.2763C50.2799 1.6131 49.8537 1.03682 49.2851 0.628629C48.7165 0.22044 48.0342 0.000914817 47.3342 0.000976576H23.9195C25.3547 0.000976576 26.63 0.916488 27.089 2.2763L47.4091 62.4857C47.579 62.9889 47.6266 63.5254 47.548 64.0507C47.4694 64.576 47.2669 65.075 46.9572 65.5065C46.6474 65.938 46.2394 66.2895 45.7668 66.532C45.2943 66.7745 44.7708 66.901 44.2396 66.901H67.6555C68.1866 66.9009 68.71 66.7743 69.1824 66.5317C69.6549 66.2892 70.0628 65.9376 70.3724 65.5062C70.6821 65.0747 70.8845 64.5757 70.9631 64.0505C71.0416 63.5252 70.994 62.9889 70.8241 62.4857L50.5034 2.2763H50.5037Z" fill="url(#paint2_linear_88_12)"/>
<defs>
<linearGradient id="paint0_linear_88_12" x1="26.3482" y1="4.95794" x2="5.77218" y2="65.7457" gradientUnits="userSpaceOnUse">
<stop stop-color="#114A8B"/>
<stop offset="1" stop-color="#0669BC"/>
</linearGradient>
<linearGradient id="paint1_linear_88_12" x1="37.219" y1="34.998" x2="32.7709" y2="36.5019" gradientUnits="userSpaceOnUse">
<stop stop-opacity="0.3"/>
<stop offset="0.071" stop-opacity="0.2"/>
<stop offset="0.321" stop-opacity="0.1"/>
<stop offset="0.623" stop-opacity="0.05"/>
<stop offset="1" stop-opacity="0"/>
</linearGradient>
<linearGradient id="paint2_linear_88_12" x1="41.4706" y1="3.07838" x2="63.928" y2="62.9098" gradientUnits="userSpaceOnUse">
<stop stop-color="#3CCBF4"/>
<stop offset="1" stop-color="#2892DF"/>
</linearGradient>
</defs>
</svg>
