<svg width="52" height="69" viewBox="0 0 52 69" fill="none" xmlns="http://www.w3.org/2000/svg">
<g clip-path="url(#clip0_7_786)">
<path d="M51.1234 14.0732L46.5568 63.2353L26.0296 68.704L5.55896 63.2428L0.99707 14.0732H51.1234Z" fill="#6610F2"/>
<path d="M26.0602 64.5236L42.6473 60.1045L46.5495 18.0933H26.0602V64.5236Z" fill="#6610F2"/>
<path d="M17.1829 30.1545H26.0602V24.124H10.3248L10.4749 25.7419L12.0174 42.3602H26.0602V36.3297H17.7564L17.1829 30.1545ZM18.5972 45.3755H12.2977L13.1768 54.8442L26.0313 58.2733L26.0602 58.2657V51.9915L26.0327 51.9985L19.044 50.185L18.5972 45.3755Z" fill="#EBEBEB"/>
<path d="M5.66074 0.710938H8.84975V3.73872H11.767V0.710938H14.9562V9.87981H11.7672V6.80955H8.84995V9.87981H5.66093V0.710938H5.66074ZM19.1497 3.75156H16.3427V0.710938H25.1481V3.75156H22.3393V9.87981H19.1503V3.75156H19.1501H19.1497ZM26.5456 0.710938H29.8708L31.9162 3.93264L33.9597 0.710938H37.2863V9.87981H34.1102V5.33522L31.9162 8.59525H31.8612L29.6658 5.33522V9.87981H26.5456V0.710938ZM38.8733 0.710938H42.0633V6.8492H46.548V9.87981H38.8731V0.710938H38.8733Z" fill="url(#paint0_linear_7_786)"/>
<path d="M26.0386 42.3602H33.766L33.0374 50.1813L26.0385 51.9966V58.2705L38.9032 54.8442L38.9975 53.8254L40.4723 37.9491L40.6254 36.3297H26.0386V42.3602ZM26.0386 30.1397V30.1545H41.1964L41.3222 28.7991L41.6082 25.7419L41.7582 24.124H26.0386V30.1399V30.1397Z" fill="white"/>
</g>
<defs>
<linearGradient id="paint0_linear_7_786" x1="5.66074" y1="6.10439" x2="47.716" y2="5.89354" gradientUnits="userSpaceOnUse">
<stop offset="0.0191633" stop-color="#6610F2"/>
<stop offset="1" stop-color="#6610F2" stop-opacity="0"/>
</linearGradient>
<clipPath id="clip0_7_786">
<rect width="50.3012" height="68.1652" fill="white" transform="translate(0.909668 0.710938)"/>
</clipPath>
</defs>
</svg>
