<svg width="145" height="26" viewBox="0 0 145 26" fill="none" xmlns="http://www.w3.org/2000/svg">
<path d="M0.632829 14.4264V12.1729L12.4637 5.15895V7.52512L2.74548 13.187V13.4124L12.4637 19.0743V21.4404L0.632829 14.4264ZM120.049 25.3559L127.401 0.257598H129.429L122.077 25.3559H120.049ZM133.114 19.0743L142.832 13.4124V13.187L133.114 7.52512V5.15895L144.944 12.1729V14.4264L133.114 21.4404V19.0743Z" fill="#6610F2"/>
<path d="M21.7202 21.1024L15.3822 1.44068H19.7202L22.6497 10.8772L24.199 17.0461H24.2835L25.7765 10.8772L28.706 1.44068H32.9031L26.5088 21.1024H21.7202ZM37.3366 4.73642C36.4916 4.73642 35.8718 4.54863 35.4775 4.17304C35.1019 3.77868 34.9141 3.28103 34.9141 2.6801V2.06039C34.9141 1.45946 35.1019 0.971204 35.4775 0.595621C35.8718 0.20126 36.4916 0.00407945 37.3366 0.00407945C38.1817 0.00407945 38.792 0.20126 39.1676 0.595621C39.5619 0.971204 39.7591 1.45946 39.7591 2.06039V2.6801C39.7591 3.28103 39.5619 3.77868 39.1676 4.17304C38.792 4.54863 38.1817 4.73642 37.3366 4.73642ZM35.2521 6.31386H39.4211V21.1024H35.2521V6.31386ZM43.3121 21.1024V6.31386H47.4811V8.82087H47.6501C47.913 8.05093 48.3731 7.38427 49.0304 6.8209C49.6876 6.25753 50.5984 5.97584 51.7627 5.97584C53.2838 5.97584 54.4294 6.48287 55.1993 7.49695C55.988 8.51102 56.3824 9.95701 56.3824 11.8349V21.1024H52.2134V12.1729C52.2134 11.2152 52.0632 10.511 51.7627 10.0603C51.4623 9.59082 50.927 9.35608 50.1571 9.35608C49.8191 9.35608 49.4904 9.40303 49.1712 9.49692C48.852 9.57204 48.5609 9.70349 48.298 9.89128C48.0538 10.0791 47.8567 10.3138 47.7064 10.5955C47.5562 10.8584 47.4811 11.1683 47.4811 11.5251V21.1024H43.3121ZM62.1768 4.73642C61.3317 4.73642 60.712 4.54863 60.3176 4.17304C59.942 3.77868 59.7543 3.28103 59.7543 2.6801V2.06039C59.7543 1.45946 59.942 0.971204 60.3176 0.595621C60.712 0.20126 61.3317 0.00407945 62.1768 0.00407945C63.0218 0.00407945 63.6321 0.20126 64.0077 0.595621C64.4021 0.971204 64.5993 1.45946 64.5993 2.06039V2.6801C64.5993 3.28103 64.4021 3.77868 64.0077 4.17304C63.6321 4.54863 63.0218 4.73642 62.1768 4.73642ZM60.0923 6.31386H64.2612V21.1024H60.0923V6.31386ZM74.124 21.4404C73.0161 21.4404 72.0302 21.262 71.1663 20.9052C70.3025 20.5297 69.5795 20.0132 68.9973 19.356C68.4152 18.6799 67.9739 17.863 67.6734 16.9053C67.3729 15.9475 67.2227 14.8771 67.2227 13.6941C67.2227 12.511 67.3729 11.45 67.6734 10.511C67.9739 9.55326 68.4152 8.73637 68.9973 8.06032C69.5795 7.38427 70.3025 6.86785 71.1663 6.51104C72.0302 6.15424 73.0161 5.97584 74.124 5.97584C75.6264 5.97584 76.8752 6.31386 77.8705 6.98991C78.8845 7.66596 79.6075 8.6143 80.0394 9.83495L76.6592 11.2997C76.5278 10.7363 76.2555 10.2575 75.8423 9.86312C75.4292 9.46875 74.8564 9.27157 74.124 9.27157C73.279 9.27157 72.6405 9.55326 72.2086 10.1166C71.7766 10.6612 71.5607 11.403 71.5607 12.342V15.1025C71.5607 16.0414 71.7766 16.7832 72.2086 17.3278C72.6405 17.8724 73.279 18.1447 74.124 18.1447C74.8752 18.1447 75.4667 17.9475 75.8987 17.5532C76.3493 17.14 76.678 16.6048 76.8846 15.9475L80.124 17.356C79.6357 18.7644 78.8751 19.7973 77.8423 20.4545C76.8282 21.1118 75.5888 21.4404 74.124 21.4404ZM84.7887 4.73642C83.9437 4.73642 83.324 4.54863 82.9296 4.17304C82.554 3.77868 82.3662 3.28103 82.3662 2.6801V2.06039C82.3662 1.45946 82.554 0.971204 82.9296 0.595621C83.324 0.20126 83.9437 0.00407945 84.7887 0.00407945C85.6338 0.00407945 86.2441 0.20126 86.6197 0.595621C87.0141 0.971204 87.2112 1.45946 87.2112 2.06039V2.6801C87.2112 3.28103 87.0141 3.77868 86.6197 4.17304C86.2441 4.54863 85.6338 4.73642 84.7887 4.73642ZM82.7042 6.31386H86.8732V21.1024H82.7042V6.31386ZM99.4965 18.6236H99.3557C99.2242 18.9992 99.0458 19.356 98.8205 19.694C98.6139 20.032 98.3416 20.3325 98.0036 20.5954C97.6656 20.8583 97.2618 21.0649 96.7923 21.2151C96.3416 21.3653 95.8158 21.4404 95.2149 21.4404C93.6938 21.4404 92.5389 20.9428 91.7501 19.9475C90.9802 18.9334 90.5952 17.4874 90.5952 15.6095V6.31386H94.7642V15.2433C94.7642 16.1447 94.9238 16.8396 95.243 17.3278C95.5623 17.8161 96.1069 18.0602 96.8768 18.0602C97.1961 18.0602 97.5153 18.0133 97.8346 17.9194C98.1538 17.8255 98.4355 17.694 98.6796 17.525C98.9238 17.3372 99.1209 17.1119 99.2712 16.8489C99.4214 16.586 99.4965 16.2762 99.4965 15.9194V6.31386H103.665V21.1024H99.4965V18.6236ZM112.558 21.4404C111.131 21.4404 109.929 21.2151 108.953 20.7644C107.976 20.2949 107.103 19.6376 106.333 18.7926L108.784 16.3137C109.31 16.8959 109.892 17.356 110.53 17.694C111.169 18.032 111.892 18.201 112.699 18.201C113.526 18.201 114.098 18.079 114.418 17.8349C114.737 17.5719 114.896 17.2245 114.896 16.7926C114.896 16.0978 114.399 15.6846 113.403 15.5532L111.798 15.356C108.474 14.9429 106.812 13.4218 106.812 10.7927C106.812 10.0791 106.943 9.4312 107.206 8.84904C107.488 8.24811 107.873 7.74108 108.361 7.32793C108.868 6.89601 109.469 6.56738 110.164 6.34203C110.878 6.0979 111.676 5.97584 112.558 5.97584C113.328 5.97584 114.004 6.03218 114.587 6.14485C115.187 6.23875 115.713 6.38898 116.164 6.59555C116.633 6.78334 117.056 7.02747 117.432 7.32793C117.826 7.60962 118.211 7.92887 118.587 8.28567L116.192 10.7363C115.723 10.2669 115.187 9.90067 114.587 9.63777C114.004 9.35608 113.403 9.21524 112.784 9.21524C112.07 9.21524 111.563 9.32791 111.263 9.55326C110.962 9.77861 110.812 10.0791 110.812 10.4547C110.812 10.849 110.915 11.1589 111.122 11.3842C111.347 11.5908 111.76 11.741 112.361 11.8349L114.023 12.0603C117.272 12.4922 118.896 13.9757 118.896 16.5109C118.896 17.2245 118.746 17.8818 118.446 18.4827C118.145 19.0837 117.713 19.6095 117.15 20.0602C116.605 20.4921 115.939 20.8301 115.15 21.0742C114.38 21.3184 113.516 21.4404 112.558 21.4404Z" fill="#CCCCCC"/>
</svg>
