<svg width="72" height="56" viewBox="0 0 72 56" fill="none" xmlns="http://www.w3.org/2000/svg">
<g clip-path="url(#clip0_7_800)">
<path d="M21.8331 36.6372L23.9977 44.496C24.484 46.2803 24.6869 47.5259 24.6056 48.2358C25.7895 44.6881 26.6167 40.8218 27.0873 36.6372H29.6901C28.5709 43.4498 27.0948 48.4004 25.2625 51.4887C23.8349 53.8686 22.271 55.0584 20.568 55.0584C20.1139 55.0584 19.5541 54.9049 18.8898 54.6002V52.9579C19.2144 53.0112 19.5952 53.0397 20.0331 53.0397C20.8276 53.0397 21.4679 52.7933 21.9551 52.3015C22.5384 51.7024 22.8304 51.029 22.8304 50.2826C22.8304 49.773 22.6027 48.7271 22.1493 47.145L19.1333 36.6372H21.8329H21.8331ZM5.26639 31.8069L9.23114 45.3424H9.25563L13.2447 31.8069H16.5039C17.2176 38.5196 17.6391 44.6614 17.7684 50.2286H15.0207C14.924 45.0244 14.6562 40.1308 14.2182 35.5468H14.1943L10.01 50.2286H7.91749L3.75853 35.5468H3.73404C3.42549 39.9491 3.23128 44.8428 3.15032 50.2286H0.644592C0.806521 43.6784 1.21176 37.5384 1.86031 31.8069H5.26652H5.26639Z" fill="#00758F"/>
<path d="M49.6821 31.5334C53.9469 31.5334 56.0794 34.5821 56.0794 40.6767C56.0794 43.9885 55.4381 46.4901 54.1567 48.1801C53.9258 48.4889 53.6705 48.7557 53.4017 49.0029L56.4198 50.6727L56.4169 50.6725L55.3453 52.7431L51.4149 50.1771C50.7634 50.393 50.0466 50.5008 49.2654 50.5008C47.1713 50.5008 45.6071 49.818 44.573 48.4539C43.4378 46.9449 42.8705 44.5694 42.8705 41.3314C42.8705 38.0382 43.5107 35.5461 44.7925 33.8539C45.9599 32.3061 47.5901 31.5332 49.6821 31.5332V31.5334ZM36.622 31.5601C38.1463 31.5601 39.5323 32.0165 40.7807 32.926L40.1466 34.5071C39.0784 33.999 38.0251 33.7439 36.9865 33.7439C36.1438 33.7439 35.4944 33.9708 35.0417 34.4275C34.5865 34.8802 34.3049 35.4627 34.3049 36.1728C34.3049 37.264 34.9997 38.2102 36.2824 39.0097C36.7027 39.2667 37.1215 39.5267 37.5388 39.7897L37.6345 39.85L37.6825 39.8802L37.7783 39.9404L37.8262 39.9706L37.9219 40.031C38.8929 40.6435 39.8066 41.2282 39.8066 41.2282C41.0893 42.247 41.7286 43.3332 41.7286 45.1222C41.7286 46.6845 41.217 47.967 40.197 48.9705C39.1763 49.9696 37.8051 50.4705 36.0878 50.4705C34.4818 50.4705 32.9252 49.8939 31.4175 48.7504L32.1228 47.168C33.4203 47.8957 34.5944 48.2592 35.6488 48.2592C36.6376 48.2592 37.4116 48.0121 37.9716 47.5243C38.5304 47.0329 38.8652 46.3475 38.8652 45.4785C38.8652 44.3846 38.1853 43.4496 36.9378 42.6652C36.5474 42.4238 36.1581 42.1801 35.7699 41.9341L35.6744 41.8735C35.4988 41.7625 35.322 41.6502 35.1488 41.5401L35.0549 41.4803C34.2126 40.9442 33.4843 40.4759 33.4843 40.4759C32.2373 39.4552 31.612 38.3601 31.612 36.5557C31.612 35.0634 32.0783 33.8572 33.0095 32.9396C33.943 32.02 35.1473 31.5601 36.622 31.5601ZM61.0915 31.8067V47.9623H66.2719V50.2284H58.4642V31.8067H61.0915ZM69.1504 47.9693V48.3523H68.5809V50.2264H68.1455V48.3523H67.5538V47.9693H69.1506H69.1504ZM70.2021 47.9693L70.749 49.5079L71.2513 47.9693H71.8686V50.2264H71.4582V48.5087L70.8864 50.2264H70.5905L70.0178 48.5087H69.9958V50.2264H69.6076V47.9693H70.2023H70.2021ZM49.4139 33.7988C46.9006 33.7988 45.6433 36.1197 45.6433 40.7584C45.6433 43.4155 45.9765 45.3423 46.6416 46.5432C47.2576 47.6546 48.2223 48.2092 49.536 48.2092C52.0492 48.2092 53.3064 45.8703 53.3064 41.1945C53.3064 38.5746 52.9732 36.6644 52.309 35.4628C51.6923 34.3539 50.7279 33.7988 49.414 33.7988H49.4139Z" fill="#F29111"/>
<path d="M42.8265 1.93053C43.6602 -0.36172 46.5754 1.3742 47.7067 2.17491C47.9839 2.37525 48.3019 2.79849 48.6198 2.95493C49.1157 2.97672 49.6113 3.02015 50.108 3.04334C51.0398 3.28835 51.9126 3.48853 52.6469 3.95644C56.0591 6.20495 58.2803 8.49626 60.3246 12.281C60.7614 13.0826 60.9797 13.9501 61.3365 14.8176C61.8318 16.1107 62.3882 17.468 62.963 18.6907C63.2204 19.2704 63.4195 19.915 63.7769 20.4046C63.9164 20.6284 64.3127 20.6944 64.5496 20.8281C65.2046 21.2074 65.9981 21.4954 66.6141 21.9406C67.7644 22.7432 68.8766 23.6996 69.8877 24.6787C70.2646 25.0566 70.5214 25.5916 70.8805 25.9913V26.1931C70.5617 26.3025 70.2441 26.4146 69.9263 26.5044C69.2319 26.704 68.6169 26.6588 67.9433 26.8585C67.5271 26.9936 67.0103 27.1719 66.5737 27.2172L66.6141 27.2626C66.8709 28.0837 68.2604 28.7515 68.8958 29.2426C69.6677 29.8659 70.3828 30.6218 70.9585 31.4899C71.1573 31.7114 71.3561 31.913 71.5539 32.1338C71.6922 32.3577 71.7311 32.6472 71.8711 32.8468V32.9143C71.7161 32.8531 71.6047 32.7364 71.4991 32.6144L71.4361 32.5407C71.3731 32.4676 71.3095 32.3957 71.237 32.3364C70.7991 32.0017 70.3642 31.6013 69.9263 31.2902C69.1734 30.7556 68.3002 30.4454 67.5271 29.9088C67.09 29.5974 66.6734 29.2426 66.2567 28.8862C65.879 28.5737 65.4631 27.9738 65.2257 27.5286C65.0859 27.2827 65.0667 26.9936 64.907 26.8157C64.9355 26.5186 65.1789 26.4303 65.4244 26.3578L65.4809 26.3411C65.5656 26.3165 65.6485 26.2919 65.7208 26.2594C66.7522 25.7694 67.9819 25.5916 69.5697 25.6361C69.5099 25.19 68.5177 24.6341 68.201 24.367C67.5652 23.8543 66.892 23.3193 66.2176 22.8526C65.8602 22.6082 65.2444 22.4298 64.8485 22.2301C64.3127 21.9851 63.122 21.7403 62.8252 21.2736C62.3209 20.538 61.9586 19.6605 61.607 18.7742L61.5112 18.5323C61.4793 18.4517 61.4473 18.3711 61.4153 18.2905C60.9996 17.2232 60.4832 16.1104 60.0665 15.0175C59.8487 14.4843 59.7487 14.0164 59.5101 13.5051C58.0623 10.3673 55.9195 7.74022 53.3216 5.89269C52.4678 5.29154 51.5159 4.73521 50.465 4.35711C49.8695 4.15584 49.1547 4.26714 48.5202 4.11272H48.1026C47.7462 4.00034 47.4486 3.57756 47.1705 3.35466C46.5563 2.88799 45.9412 2.57465 45.2066 2.24169C44.9493 2.10814 44.2143 1.79713 43.9578 2.04198C43.7989 2.08665 43.7184 2.15374 43.6793 2.33213C43.5213 2.59831 43.6602 2.99929 43.7586 3.24476C44.0566 3.95613 44.4728 4.3789 44.8506 4.98006C45.1867 5.5132 45.6042 6.11435 45.8425 6.69403C46.3567 7.94009 46.5961 9.32064 47.0726 10.5665C47.2492 11.0351 47.5287 11.5682 47.7859 11.9908C48.0039 12.3263 48.4003 12.5688 48.5202 12.9934C48.7592 13.4386 48.1624 14.9076 48.0242 15.3741C47.5074 17.1995 47.6076 19.7369 48.2027 21.3192L48.2345 21.4026L48.2662 21.4872C48.4835 22.0667 48.7161 22.6907 49.2938 22.8528C49.3336 22.8086 49.2938 22.8318 49.3727 22.8086C49.5125 21.5838 49.5519 20.4044 49.9291 19.4462C50.1471 18.847 50.5824 18.4235 50.8808 17.9344C51.0798 18.0676 51.0798 18.4694 51.1983 18.7353C51.4565 19.4248 51.7337 20.1809 52.052 20.8725C52.7053 22.2968 53.4404 23.6776 54.2733 24.9235C54.5522 25.3686 54.948 25.8584 55.3049 26.2592C55.4639 26.4144 55.642 26.5041 55.7615 26.7038H55.8005V26.771C55.2053 26.5256 54.8281 25.8366 54.3534 25.4344C53.4597 24.6784 52.3895 23.543 51.7735 22.4535C51.5159 21.8281 51.2374 21.2286 50.9597 20.6063V20.5613C50.841 20.7391 50.8808 20.9156 50.8214 21.1846C50.5638 22.2968 50.7622 23.5655 49.8695 23.9656C48.8575 24.4341 48.1027 23.2095 47.7859 22.6531C46.7738 20.806 46.4965 17.69 47.2103 15.1747C47.3689 14.6179 47.3904 13.9501 47.6673 13.5056C47.6075 13.1036 47.3306 12.9937 47.1705 12.7475C46.8928 12.3266 46.6551 11.8363 46.4376 11.3688C46.02 10.4557 45.7229 9.36469 45.4058 8.38543C45.2664 7.98554 45.2265 7.5841 45.0875 7.20553C44.8505 6.62772 44.4135 6.04804 44.0765 5.53686C43.62 4.80214 42.2907 3.37816 42.8265 1.93053ZM49.3332 6.29134C49.3862 6.3508 49.4502 6.40279 49.5164 6.454L49.5962 6.51533C49.7027 6.59783 49.8057 6.68469 49.8689 6.80299C49.9691 6.95959 49.9877 7.11416 50.1076 7.27106C50.1076 7.80607 49.9691 8.16175 49.6893 8.38341C49.6893 8.38341 49.6702 8.40676 49.6506 8.42855C49.492 8.07193 49.3531 7.71718 49.1934 7.36088C48.9967 7.04987 48.7186 6.80315 48.5583 6.44778H48.5198V6.4031C48.7592 6.33695 48.9967 6.29134 49.3332 6.29134Z" fill="#00758F"/>
</g>
<defs>
<clipPath id="clip0_7_800">
<rect width="71.2265" height="54.3253" fill="white" transform="translate(0.644592 0.789062)"/>
</clipPath>
</defs>
</svg>
