<svg width="60" height="64" viewBox="0 0 60 64" fill="none" xmlns="http://www.w3.org/2000/svg">
<g clip-path="url(#clip0_7_781)">
<path d="M29.9868 0.746338C15.0134 0.746338 15.9483 7.62332 15.9483 7.62332L15.9649 14.7481H30.2538V16.8871H10.2897C10.2897 16.8871 0.708191 15.7363 0.708191 31.7369C0.708191 47.738 9.07113 47.1706 9.07113 47.1706H14.0621V39.7454C14.0621 39.7454 13.793 30.8884 22.2915 30.8884H36.4635C36.4635 30.8884 44.4257 31.0246 44.4257 22.7385V9.03786C44.4257 9.03786 45.635 0.746338 29.9868 0.746338ZM22.1079 5.5376C22.4456 5.53728 22.78 5.60748 23.092 5.74418C23.404 5.88088 23.6875 6.0814 23.9263 6.33426C24.165 6.58713 24.3543 6.88737 24.4834 7.21781C24.6125 7.54826 24.6788 7.90242 24.6785 8.26002C24.6788 8.61762 24.6125 8.97178 24.4834 9.30223C24.3543 9.63267 24.165 9.93292 23.9263 10.1858C23.6875 10.4386 23.404 10.6392 23.092 10.7759C22.78 10.9126 22.4456 10.9828 22.1079 10.9824C21.7703 10.9828 21.4359 10.9126 21.1239 10.7759C20.8119 10.6392 20.5284 10.4386 20.2896 10.1858C20.0508 9.93292 19.8615 9.63267 19.7324 9.30223C19.6034 8.97178 19.5371 8.61762 19.5374 8.26002C19.5371 7.90242 19.6034 7.54826 19.7324 7.21781C19.8615 6.88737 20.0508 6.58713 20.2896 6.33426C20.5284 6.0814 20.8119 5.88088 21.1239 5.74418C21.4359 5.60748 21.7703 5.53728 22.1079 5.5376Z" fill="#6610F2"/>
<path d="M30.4119 62.8886C45.3853 62.8886 44.4504 56.0116 44.4504 56.0116L44.4338 48.8871H30.1447V46.7481H50.1088C50.1088 46.7481 59.6903 47.8989 59.6903 31.8978C59.6903 15.8969 51.3274 16.4644 51.3274 16.4644H46.3364V23.8893C46.3364 23.8893 46.6055 32.7463 38.107 32.7463H23.935C23.935 32.7463 15.9728 32.6101 15.9728 40.8965V54.5974C15.9728 54.5974 14.7637 62.8886 30.4117 62.8886H30.4119ZM38.2908 58.0979C37.9531 58.0982 37.6187 58.028 37.3067 57.8913C36.9947 57.7546 36.7112 57.5541 36.4725 57.3012C36.2337 57.0483 36.0444 56.7481 35.9153 56.4176C35.7862 56.0872 35.7199 55.733 35.7202 55.3754C35.7199 55.0178 35.7862 54.6636 35.9152 54.3331C36.0443 54.0027 36.2336 53.7024 36.4724 53.4495C36.7111 53.1966 36.9946 52.9961 37.3067 52.8594C37.6187 52.7227 37.9531 52.6524 38.2908 52.6528C38.6285 52.6524 38.9628 52.7226 39.2749 52.8593C39.5869 52.996 39.8704 53.1966 40.1091 53.4494C40.3479 53.7023 40.5372 54.0025 40.6663 54.333C40.7954 54.6634 40.8616 55.0176 40.8613 55.3752C40.8616 55.7328 40.7954 56.0869 40.6663 56.4174C40.5372 56.7478 40.3479 57.0481 40.1091 57.3009C39.8704 57.5538 39.5869 57.7543 39.2749 57.891C38.9628 58.0277 38.6285 58.0979 38.2908 58.0976V58.0979Z" fill="#CCCCCC"/>
</g>
<defs>
<clipPath id="clip0_7_781">
<rect width="59.1249" height="62.3735" fill="white" transform="translate(0.674744 0.729004)"/>
</clipPath>
</defs>
</svg>
