<svg width="67" height="64" viewBox="0 0 67 64" fill="none" xmlns="http://www.w3.org/2000/svg">
<mask id="path-1-inside-1_7_799" fill="white">
<path d="M54.592 20.5659C53.8854 20.3055 53.1728 20.0643 52.4549 19.8424C52.5755 19.3131 52.6865 18.7902 52.785 18.2765C54.403 9.84081 53.3453 3.04484 49.7326 0.807278C46.2687 -1.33779 40.6039 0.898931 34.8829 6.24684C34.319 6.77485 33.7677 7.31807 33.2294 7.87598C32.869 7.50499 32.5023 7.14119 32.1294 6.78478C26.1334 1.06664 20.1234 -1.34336 16.5146 0.900603C13.0539 3.05236 12.0291 9.44105 13.4857 17.4358C13.6306 18.2275 13.7943 19.0153 13.9764 19.7981C13.1257 20.0578 12.3048 20.3341 11.5192 20.6283C4.48936 23.2609 0 27.3864 0 31.6657C0 36.0853 4.81953 40.5184 12.1414 43.2064C12.735 43.4234 13.3336 43.6245 13.9365 43.8095C13.7407 44.6527 13.5668 45.5016 13.4152 46.3552C12.0265 54.2112 13.1109 60.4489 16.5623 62.587C20.127 64.795 26.1101 62.5257 31.9357 57.0558C32.4081 56.6111 32.8701 56.1538 33.3212 55.6843C33.9041 56.2884 34.5027 56.875 35.116 57.4433C40.7593 62.6589 46.3326 64.7649 49.7806 62.621C53.3419 60.4065 54.4994 53.7056 52.9967 45.5529C52.8783 44.9142 52.7455 44.2787 52.5986 43.6468C53.0187 43.5131 53.4311 43.3755 53.8331 43.2323C61.445 40.5237 66.3976 36.1444 66.3976 31.6657C66.3976 27.3708 61.7632 23.2174 54.592 20.5659ZM52.9412 40.3407C52.5781 40.4696 52.2056 40.5942 51.8259 40.7153C50.9856 37.8579 49.8516 34.8197 48.4637 31.6804C49.7881 28.616 50.8784 25.6166 51.6952 22.7778C52.3745 22.989 53.0335 23.2116 53.669 23.4464C59.8133 25.7185 63.5612 29.0774 63.5612 31.6657C63.5612 34.4225 59.5135 38.0014 52.9412 40.3407ZM50.2142 46.1446C50.8787 49.7494 50.9734 53.0088 50.5332 55.557C50.138 57.8467 49.3427 59.373 48.3592 59.9845C46.2669 61.2855 41.7921 59.5945 36.9661 55.1338C36.3956 54.6055 35.8388 54.0602 35.2965 53.4986C37.1676 51.3008 39.0374 48.746 40.8623 45.9084C44.0722 45.6025 47.1047 45.1022 49.8547 44.4194C49.9872 44.9913 50.1071 45.5666 50.2142 46.1446ZM22.6364 59.7597C20.5921 60.535 18.9638 60.5572 17.9795 59.9477C15.8851 58.6504 15.0144 53.6418 16.202 46.9235C16.3432 46.1296 16.5049 45.3401 16.6868 44.5559C19.4065 45.2022 22.417 45.6668 25.6344 45.9471C27.4717 48.7237 29.3955 51.2758 31.3342 53.5105C30.9222 53.9388 30.5004 54.356 30.0693 54.7619C27.493 57.1806 24.9115 58.8966 22.6364 59.7597ZM13.0591 40.3237C9.8214 39.135 7.1476 37.5902 5.31492 35.9045C3.66795 34.3899 2.83668 32.8858 2.83668 31.6657C2.83668 29.0687 6.44108 25.7564 12.4529 23.5052C13.1825 23.2322 13.9461 22.9745 14.7384 22.7327C15.5695 25.6355 16.6593 28.6706 17.9746 31.7398C16.6422 34.8543 15.5368 37.9379 14.6977 40.875C14.1474 40.7056 13.601 40.5218 13.0591 40.3237ZM16.2695 16.8505C15.0217 10.001 15.8503 4.83416 17.9359 3.53737C20.1571 2.15617 25.069 4.12545 30.2462 9.06301C30.5838 9.38572 30.9159 9.71496 31.2424 10.0506C29.3132 12.2756 27.4072 14.8087 25.5862 17.5689C22.4634 17.8798 19.4742 18.379 16.726 19.0479C16.5566 18.3197 16.4044 17.5868 16.2695 16.8505ZM44.9104 24.4468C44.2613 23.2425 43.5881 22.0533 42.8913 20.8801C45.0098 21.1679 47.0396 21.5498 48.9457 22.0167C48.3735 23.9869 47.6602 26.0464 46.8207 28.158C46.207 26.9074 45.5701 25.6701 44.9104 24.4468ZM33.2307 12.228C34.5389 13.7504 35.8493 15.45 37.138 17.2942C34.5236 17.1616 31.9049 17.1611 29.2904 17.2926C30.5805 15.4654 31.902 13.768 33.2307 12.228ZM21.476 24.4677C20.8246 25.6811 20.1996 26.9108 19.6016 28.1555C18.7757 26.0514 18.069 23.9824 17.4919 21.9844C19.3863 21.5292 21.4065 21.157 23.5115 20.8746C22.8069 22.0549 22.1282 23.2531 21.476 24.4677ZM23.5719 42.6735C21.3971 42.4127 19.3466 42.0598 17.4527 41.6168C18.0389 39.5832 18.7612 37.4702 19.6049 35.3209C20.2053 36.5666 20.8329 37.797 21.4871 39.011C22.1599 40.259 22.8566 41.4814 23.5719 42.6735ZM33.309 51.3178C31.9645 49.76 30.6236 48.0364 29.314 46.1828C30.5854 46.2363 31.8815 46.2636 33.1988 46.2636C34.5522 46.2636 35.89 46.231 37.2068 46.168C35.9138 48.0551 34.6084 49.7812 33.309 51.3178ZM46.8474 35.2111C47.7349 37.3841 48.4829 39.486 49.0769 41.4848C47.1519 41.9567 45.0733 42.3367 42.8832 42.6189C43.585 41.4239 44.2646 40.2141 44.9216 38.9901C45.5896 37.7459 46.2316 36.486 46.8474 35.2111ZM42.4646 37.4679C41.4589 39.3446 40.3965 41.1855 39.2794 42.988C37.2557 43.1419 35.2275 43.2184 33.1988 43.2173C31.1324 43.2173 29.1226 43.1482 27.1872 43.0134C26.0409 41.2151 24.9583 39.3708 23.9418 37.4846C22.93 35.6084 21.9853 33.6916 21.109 31.7384C21.983 29.7846 22.9252 27.8669 23.9335 25.9893C24.9414 24.1112 26.0151 22.2751 27.1527 20.4845C29.1273 20.3241 31.1521 20.2405 33.1985 20.2405C35.2543 20.2405 37.282 20.3249 39.256 20.4865C40.3822 22.2744 41.4493 24.1044 42.4553 25.9731C43.4669 27.8466 44.4215 29.755 45.3176 31.6952C44.4307 33.6552 43.4791 35.5807 42.4646 37.4679ZM48.3159 3.44655C50.5392 4.82385 51.4039 10.3779 50.007 17.6614C49.9178 18.1261 49.8176 18.5994 49.7087 19.0794C46.9537 18.3963 43.9625 17.8884 40.8306 17.5728C39.0062 14.7823 37.1157 12.2452 35.218 10.0489C35.7153 9.53396 36.2245 9.03236 36.7451 8.54458C41.6471 3.96276 46.2285 2.15366 48.3159 3.44655ZM33.1988 25.2973C36.4733 25.2973 39.1279 28.1486 39.1279 31.6657C39.1279 35.1827 36.4733 38.034 33.1988 38.034C29.9243 38.034 27.2697 35.1827 27.2697 31.6657C27.2697 28.1486 29.9243 25.2973 33.1988 25.2973Z"/>
</mask>
<path d="M54.592 20.5659C53.8854 20.3055 53.1728 20.0643 52.4549 19.8424C52.5755 19.3131 52.6865 18.7902 52.785 18.2765C54.403 9.84081 53.3453 3.04484 49.7326 0.807278C46.2687 -1.33779 40.6039 0.898931 34.8829 6.24684C34.319 6.77485 33.7677 7.31807 33.2294 7.87598C32.869 7.50499 32.5023 7.14119 32.1294 6.78478C26.1334 1.06664 20.1234 -1.34336 16.5146 0.900603C13.0539 3.05236 12.0291 9.44105 13.4857 17.4358C13.6306 18.2275 13.7943 19.0153 13.9764 19.7981C13.1257 20.0578 12.3048 20.3341 11.5192 20.6283C4.48936 23.2609 0 27.3864 0 31.6657C0 36.0853 4.81953 40.5184 12.1414 43.2064C12.735 43.4234 13.3336 43.6245 13.9365 43.8095C13.7407 44.6527 13.5668 45.5016 13.4152 46.3552C12.0265 54.2112 13.1109 60.4489 16.5623 62.587C20.127 64.795 26.1101 62.5257 31.9357 57.0558C32.4081 56.6111 32.8701 56.1538 33.3212 55.6843C33.9041 56.2884 34.5027 56.875 35.116 57.4433C40.7593 62.6589 46.3326 64.7649 49.7806 62.621C53.3419 60.4065 54.4994 53.7056 52.9967 45.5529C52.8783 44.9142 52.7455 44.2787 52.5986 43.6468C53.0187 43.5131 53.4311 43.3755 53.8331 43.2323C61.445 40.5237 66.3976 36.1444 66.3976 31.6657C66.3976 27.3708 61.7632 23.2174 54.592 20.5659ZM52.9412 40.3407C52.5781 40.4696 52.2056 40.5942 51.8259 40.7153C50.9856 37.8579 49.8516 34.8197 48.4637 31.6804C49.7881 28.616 50.8784 25.6166 51.6952 22.7778C52.3745 22.989 53.0335 23.2116 53.669 23.4464C59.8133 25.7185 63.5612 29.0774 63.5612 31.6657C63.5612 34.4225 59.5135 38.0014 52.9412 40.3407ZM50.2142 46.1446C50.8787 49.7494 50.9734 53.0088 50.5332 55.557C50.138 57.8467 49.3427 59.373 48.3592 59.9845C46.2669 61.2855 41.7921 59.5945 36.9661 55.1338C36.3956 54.6055 35.8388 54.0602 35.2965 53.4986C37.1676 51.3008 39.0374 48.746 40.8623 45.9084C44.0722 45.6025 47.1047 45.1022 49.8547 44.4194C49.9872 44.9913 50.1071 45.5666 50.2142 46.1446ZM22.6364 59.7597C20.5921 60.535 18.9638 60.5572 17.9795 59.9477C15.8851 58.6504 15.0144 53.6418 16.202 46.9235C16.3432 46.1296 16.5049 45.3401 16.6868 44.5559C19.4065 45.2022 22.417 45.6668 25.6344 45.9471C27.4717 48.7237 29.3955 51.2758 31.3342 53.5105C30.9222 53.9388 30.5004 54.356 30.0693 54.7619C27.493 57.1806 24.9115 58.8966 22.6364 59.7597ZM13.0591 40.3237C9.8214 39.135 7.1476 37.5902 5.31492 35.9045C3.66795 34.3899 2.83668 32.8858 2.83668 31.6657C2.83668 29.0687 6.44108 25.7564 12.4529 23.5052C13.1825 23.2322 13.9461 22.9745 14.7384 22.7327C15.5695 25.6355 16.6593 28.6706 17.9746 31.7398C16.6422 34.8543 15.5368 37.9379 14.6977 40.875C14.1474 40.7056 13.601 40.5218 13.0591 40.3237ZM16.2695 16.8505C15.0217 10.001 15.8503 4.83416 17.9359 3.53737C20.1571 2.15617 25.069 4.12545 30.2462 9.06301C30.5838 9.38572 30.9159 9.71496 31.2424 10.0506C29.3132 12.2756 27.4072 14.8087 25.5862 17.5689C22.4634 17.8798 19.4742 18.379 16.726 19.0479C16.5566 18.3197 16.4044 17.5868 16.2695 16.8505ZM44.9104 24.4468C44.2613 23.2425 43.5881 22.0533 42.8913 20.8801C45.0098 21.1679 47.0396 21.5498 48.9457 22.0167C48.3735 23.9869 47.6602 26.0464 46.8207 28.158C46.207 26.9074 45.5701 25.6701 44.9104 24.4468ZM33.2307 12.228C34.5389 13.7504 35.8493 15.45 37.138 17.2942C34.5236 17.1616 31.9049 17.1611 29.2904 17.2926C30.5805 15.4654 31.902 13.768 33.2307 12.228ZM21.476 24.4677C20.8246 25.6811 20.1996 26.9108 19.6016 28.1555C18.7757 26.0514 18.069 23.9824 17.4919 21.9844C19.3863 21.5292 21.4065 21.157 23.5115 20.8746C22.8069 22.0549 22.1282 23.2531 21.476 24.4677ZM23.5719 42.6735C21.3971 42.4127 19.3466 42.0598 17.4527 41.6168C18.0389 39.5832 18.7612 37.4702 19.6049 35.3209C20.2053 36.5666 20.8329 37.797 21.4871 39.011C22.1599 40.259 22.8566 41.4814 23.5719 42.6735ZM33.309 51.3178C31.9645 49.76 30.6236 48.0364 29.314 46.1828C30.5854 46.2363 31.8815 46.2636 33.1988 46.2636C34.5522 46.2636 35.89 46.231 37.2068 46.168C35.9138 48.0551 34.6084 49.7812 33.309 51.3178ZM46.8474 35.2111C47.7349 37.3841 48.4829 39.486 49.0769 41.4848C47.1519 41.9567 45.0733 42.3367 42.8832 42.6189C43.585 41.4239 44.2646 40.2141 44.9216 38.9901C45.5896 37.7459 46.2316 36.486 46.8474 35.2111ZM42.4646 37.4679C41.4589 39.3446 40.3965 41.1855 39.2794 42.988C37.2557 43.1419 35.2275 43.2184 33.1988 43.2173C31.1324 43.2173 29.1226 43.1482 27.1872 43.0134C26.0409 41.2151 24.9583 39.3708 23.9418 37.4846C22.93 35.6084 21.9853 33.6916 21.109 31.7384C21.983 29.7846 22.9252 27.8669 23.9335 25.9893C24.9414 24.1112 26.0151 22.2751 27.1527 20.4845C29.1273 20.3241 31.1521 20.2405 33.1985 20.2405C35.2543 20.2405 37.282 20.3249 39.256 20.4865C40.3822 22.2744 41.4493 24.1044 42.4553 25.9731C43.4669 27.8466 44.4215 29.755 45.3176 31.6952C44.4307 33.6552 43.4791 35.5807 42.4646 37.4679ZM48.3159 3.44655C50.5392 4.82385 51.4039 10.3779 50.007 17.6614C49.9178 18.1261 49.8176 18.5994 49.7087 19.0794C46.9537 18.3963 43.9625 17.8884 40.8306 17.5728C39.0062 14.7823 37.1157 12.2452 35.218 10.0489C35.7153 9.53396 36.2245 9.03236 36.7451 8.54458C41.6471 3.96276 46.2285 2.15366 48.3159 3.44655ZM33.1988 25.2973C36.4733 25.2973 39.1279 28.1486 39.1279 31.6657C39.1279 35.1827 36.4733 38.034 33.1988 38.034C29.9243 38.034 27.2697 35.1827 27.2697 31.6657C27.2697 28.1486 29.9243 25.2973 33.1988 25.2973Z" fill="#6610F2" stroke="black" stroke-width="1.21146" mask="url(#path-1-inside-1_7_799)"/>
</svg>
